<?xml version="1.0" encoding="utf-8"?>
<!-- Svg Vector Icons : http://www.onlinewebfonts.com/icon -->
<!DOCTYPE svg PUBLIC "-//W3C//DTD SVG 1.1//EN" "http://www.w3.org/Graphics/SVG/1.1/DTD/svg11.dtd">
<svg fill="#e0e0e0" version="1.1" xmlns="http://www.w3.org/2000/svg" xmlns:xlink="http://www.w3.org/1999/xlink" x="0px" y="0px" viewBox="0 0 1000 1000" enable-background="new 0 0 1000 1000" xml:space="preserve">
<metadata> Svg Vector Icons : http://www.onlinewebfonts.com/icon </metadata>
<g><g transform="translate(0.000000,511.000000) scale(0.100000,-0.100000)"><path d="M2546.4,4759.7c-114.6-31.6-233.1-108.7-300.3-195.6c-108.7-142.3-110.6-158.1-110.6-1153.8c0-829.8,4-918.7,31.6-906.8c17.8,5.9,110.6,11.9,207.4,11.9h175.8v879.2c0,853.5,2,881.1,39.5,918.7c39.5,39.5,65.2,39.5,2390.6,39.5h2349.1l5.9-853.5l5.9-855.5l53.3-100.8c63.2-118.5,183.7-233.1,310.2-292.4c86.9-39.5,120.5-41.5,936.5-47.4l843.6-5.9V-932.2c0-3105.8,0-3131.4-39.5-3170.9c-39.5-39.5-65.2-39.5-3427.8-39.5c-3362.6,0-3388.3,0-3427.8,39.5c-35.6,35.6-39.5,65.2-39.5,341.8v300.3l-207.4,2h-207.4V-3787c0-373.4,19.8-460.3,130.4-588.8c37.5-45.4,118.5-104.7,181.8-136.3l112.6-55.3h3457.4h3457.4l112.6,55.3c63.2,31.6,144.2,90.9,181.8,136.3c140.3,162,130.4-98.8,130.4,3560.2v3301.3L8748,3637.6L7598.2,4787.4l-2479.5-2C3186.5,4785.4,2619.5,4779.5,2546.4,4759.7z"/><path d="M1987.3,1772.5C612.2,1527.5-223.5,118.9,219.1-1202.8c114.6-343.8,290.4-626.3,551.2-885.1C1116-2433.7,1540.8-2651,2016.9-2730c1529.2-247,2864.7,1088.6,2617.8,2617.8c-158.1,964.1-904.9,1716.9-1874.9,1886.8C2546.4,1810.1,2200.7,1810.1,1987.3,1772.5z M1947.8,263.1l434.6-434.6L2821,267.1l440.6,440.6l148.2-148.2L3558,411.3L3119.4-27.3l-440.6-440.6l440.6-440.6l438.6-438.6l-152.1-154.1l-154.1-152.1l-438.6,438.6l-440.6,440.6L1932-1214.7l-438.6-438.6l-148.2,148.2L1197-1356.9l440.6,440.6l438.6,438.6L1641.6-43.1c-239.1,239.1-434.6,442.5-434.6,454.4c0,25.7,260.8,286.5,286.5,286.5C1505.2,697.8,1708.7,502.2,1947.8,263.1z"/></g></g>
</svg>